# xmcd
#
# Track frame offsets: 
#        150
#        16375
#        32582
#        50192
#        70402
#        92425
#        116352
#        150147
#        164807
#        182809
#        213810
#        232167
#
# Disc length: 3536 seconds
#
# Revision: 0
# Processed by: cddbd v1.5.1PL2 Copyright (c) Steve Scherf et al.
# Submitted via: ExactAudioCopy v0.95b4
#
DISCID=9b0dce0c
DTITLE=Bullfrog Blues Machine - Blue Tattoo
DYEAR=2003
DGENRE=Blues
TTITLE0=Who's Fooling You?
TTITLE1=To Tame A Wild Horse
TTITLE2=Just Take Care
TTITLE3=I Can't Quit You Baby
TTITLE4=John's Barn Beer
TTITLE5=Don't Look Back
TTITLE6=Change Your Ways
TTITLE7=Simple Life
TTITLE8=Boogie Man
TTITLE9=Laid Back
TTITLE10=Born With The Blues
TTITLE11=Pay It Back
EXTD=
EXTT0=
EXTT1=
EXTT2=
EXTT3=
EXTT4=
EXTT5=
EXTT6=
EXTT7=
EXTT8=
EXTT9=
EXTT10=
EXTT11=
PLAYORDER=
